<svg xmlns="http://www.w3.org/2000/svg" version="1.1" xmlns:xlink="http://www.w3.org/1999/xlink" xmlns:svgjs="http://svgjs.com/svgjs" width="95" height="76"><svg width="95" height="76" viewBox="0 0 95 76" fill="none" xmlns="http://www.w3.org/2000/svg">
<path d="M40.5245 13.8228L40.9218 12.3764L38.029 11.5818L37.6317 13.0282L40.5245 13.8228ZM37.6317 13.0282L35.3493 21.3372L38.2422 22.1318L40.5245 13.8228L37.6317 13.0282ZM55.4359 59.1206C60.7468 54.3851 64.527 47.0296 64.2972 38.8637L61.2984 38.948C61.5006 46.1348 58.1641 52.6687 53.4394 56.8815L55.4359 59.1206ZM35.3493 21.3372C32.5249 31.6197 33.0618 44.4666 36.3471 53.0827C37.9763 57.3554 40.4118 60.9235 43.7902 62.3543C47.3402 63.8577 51.3292 62.7824 55.4359 59.1206L53.4394 56.8815C49.8032 60.1236 47.0286 60.4678 44.9602 59.5918C42.7203 58.6432 40.6828 56.0329 39.1503 52.0138C36.1122 44.0463 35.5711 31.8561 38.2422 22.1318L35.3493 21.3372Z" fill="black"></path>
<path d="M61.5431 35.4746C62.0533 35.3379 61.3475 38.5214 61.3478 38.9553C62.0931 39.3054 63.6415 39.2381 64.3716 39.1329C64.5147 37.5981 63.4031 29.8571 63.2944 26.4849C63.3012 32.4356 58.4296 37.8348 58.4297 37.993C58.474 37.9284 61.4631 35.4961 61.5431 35.4746Z" fill="black" stroke="black" stroke-width="0.1" stroke-linecap="round"></path>
<path d="M42.2549 8.25533C42.5192 9.24168 42.4607 10.1712 42.2014 10.8637C41.9412 11.5585 41.5193 11.9365 41.0809 12.054C40.6425 12.1715 40.0882 12.055 39.5155 11.5834C38.9446 11.1133 38.4292 10.3376 38.1649 9.35124C37.9006 8.36489 37.9591 7.43538 38.2184 6.74284C38.4786 6.04806 38.9005 5.67005 39.3389 5.55258C39.7773 5.43512 40.3317 5.55154 40.9044 6.02315C41.4752 6.49325 41.9906 7.26899 42.2549 8.25533Z" stroke="black" stroke-width="2"></path>
<path d="M0.66098 69.1337C-0.61857 71.2643 0.0713257 74.0288 2.20191 75.3083C4.33249 76.5879 7.09694 75.898 8.3765 73.7674L0.66098 69.1337ZM8.3765 73.7674C20.5908 53.4293 34.693 44.4506 47.7594 44.4506C60.8258 44.4506 74.9279 53.4293 87.1422 73.7674L94.8578 69.1337C81.8484 47.4718 65.3217 35.4506 47.7594 35.4506C30.197 35.4506 13.6703 47.4718 0.66098 69.1337L8.3765 73.7674Z" fill="#4B4A36"></path>
<path d="M0.66098 69.1333C-0.61857 71.2639 0.0713257 74.0283 2.20191 75.3079C4.33249 76.5874 7.09694 75.8975 8.3765 73.767L0.66098 69.1333ZM8.3765 73.767C8.46049 73.6271 8.54459 73.4878 8.6288 73.3489L0.933662 68.6815C0.842616 68.8316 0.751722 68.9822 0.66098 69.1333L8.3765 73.767ZM9.13529 72.5221C9.30453 72.2486 9.47419 71.9771 9.64424 71.7077L2.0335 66.9039C1.84898 67.1962 1.66507 67.4905 1.48176 67.7868L9.13529 72.5221ZM10.1556 70.9056C10.3265 70.6403 10.4977 70.377 10.6693 70.1159L3.14774 65.1736C2.96085 65.458 2.77454 65.7444 2.58883 66.0328L10.1556 70.9056ZM11.2057 69.308C11.385 69.0408 11.5647 68.7759 11.7448 68.5132L4.3213 63.4248C4.1244 63.712 3.92813 64.0014 3.73249 64.293L11.2057 69.308ZM12.2862 67.7317C12.4671 67.4734 12.6483 67.2173 12.8299 66.9635L5.51023 61.7268C5.31083 62.0056 5.11204 62.2864 4.91389 62.5694L12.2862 67.7317ZM13.3901 66.1891C13.5797 65.9298 13.7698 65.673 13.9602 65.4185L6.75421 60.0265C6.54415 60.3072 6.33476 60.5902 6.12603 60.8756L13.3901 66.1891ZM14.5325 64.6623C14.7237 64.4126 14.9152 64.1654 15.107 63.9205L8.02243 58.3699C7.80975 58.6414 7.59772 58.9152 7.38635 59.1913L14.5325 64.6623ZM15.6947 63.1792C15.895 62.9296 16.0956 62.6825 16.2966 62.4381L9.3447 56.7222C9.12071 56.9947 8.89741 57.2696 8.67482 57.547L15.6947 63.1792ZM16.9005 61.7126C17.1022 61.4733 17.3041 61.2367 17.5064 61.0026L10.6969 55.1178C10.4702 55.3802 10.2441 55.6451 10.0187 55.9125L16.9005 61.7126ZM18.1257 60.2952C18.3367 60.0573 18.548 59.8221 18.7597 59.5898L12.106 53.5293C11.8673 53.7914 11.6293 54.0562 11.3921 54.3237L18.1257 60.2952ZM19.3955 58.901C19.6077 58.6743 19.8203 58.4503 20.0331 58.2291L13.5469 51.9897C13.3053 52.2408 13.0644 52.4947 12.8243 52.7513L19.3955 58.901ZM20.6878 57.558C20.9095 57.334 21.1315 57.113 21.3538 56.895L15.0517 50.4698C14.7975 50.7191 14.5441 50.9714 14.2915 51.2266L20.6878 57.558ZM22.0214 56.2499C22.2441 56.0379 22.4671 55.8289 22.6904 55.6228L16.5857 49.0098C16.3285 49.2472 16.0721 49.4875 15.8164 49.7309L22.0214 56.2499ZM23.3841 54.9926C23.6164 54.785 23.8488 54.5806 24.0815 54.3794L18.1949 47.5715C17.9247 47.8052 17.6552 48.0421 17.3865 48.2822L23.3841 54.9926ZM24.7801 53.7855C25.016 53.5883 25.2522 53.3943 25.4884 53.2036L19.8361 46.2C19.5593 46.4234 19.2833 46.6501 19.008 46.8802L24.7801 53.7855ZM26.2151 52.6278C26.4574 52.4393 26.6999 52.2542 26.9425 52.0725L21.5474 44.8688C21.2606 45.0837 20.9745 45.302 20.6893 45.5239L26.2151 52.6278ZM27.6707 51.5376C27.9212 51.3572 28.1718 51.1804 28.4225 51.0071L23.3057 43.6031C23.0065 43.81 22.708 44.0206 22.4104 44.2349L27.6707 51.5376ZM29.1775 50.4963C29.4293 50.3296 29.6811 50.1666 29.933 50.0071L25.1179 42.4034C24.8143 42.5957 24.5114 42.7918 24.2094 42.9918L29.1775 50.4963ZM30.7028 49.5308C30.963 49.3735 31.2233 49.2201 31.4835 49.0705L26.9974 41.2683C26.6803 41.4506 26.364 41.637 26.0486 41.8276L30.7028 49.5308ZM32.2643 48.6329C32.5272 48.4893 32.7902 48.3496 33.0531 48.2136L28.9198 40.2189C28.5961 40.3862 28.2732 40.5579 27.9511 40.7337L32.2643 48.6329ZM33.8569 47.8099C34.1248 47.6792 34.3926 47.5526 34.6604 47.4298L30.9094 39.2487C30.5762 39.4015 30.2438 39.5587 29.9122 39.7204L33.8569 47.8099ZM35.4682 47.0712C35.7429 46.9532 36.0175 46.8394 36.292 46.7296L32.9504 38.373C32.6052 38.511 32.2609 38.6538 31.9173 38.8013L35.4682 47.0712ZM37.1151 46.4126C37.3905 46.3105 37.6657 46.2126 37.9409 46.1187L35.0339 37.6011C34.6846 37.7203 34.3359 37.8444 33.9879 37.9733L37.1151 46.4126ZM38.7808 45.8445C39.0607 45.7572 39.3404 45.6742 39.62 45.5953L37.1759 36.9335C36.8176 37.0346 36.4599 37.1408 36.1029 37.2521L38.7808 45.8445ZM40.4614 45.3703C40.7456 45.2985 41.0296 45.2309 41.3135 45.1676L39.3547 36.3834C38.988 36.4651 38.6218 36.5522 38.2562 36.6446L40.4614 45.3703ZM42.165 44.9903C42.4496 44.9353 42.7341 44.8845 43.0185 44.838L41.5641 35.9562C41.1944 36.0168 40.8251 36.0827 40.4562 36.154L42.165 44.9903ZM43.8786 44.7099C44.1652 44.6715 44.4518 44.6374 44.7383 44.6075L43.8052 35.656C43.4311 35.695 43.0572 35.7396 42.6836 35.7896L43.8786 44.7099ZM45.5995 44.5306C45.8875 44.5091 46.1756 44.492 46.4635 44.4791L46.0618 35.4881C45.6847 35.5049 45.3077 35.5274 44.9309 35.5554L45.5995 44.5306ZM47.3274 44.4534C47.6154 44.4491 47.9033 44.4491 48.1912 44.4534L48.3252 35.4543C47.948 35.4487 47.5707 35.4487 47.1934 35.4544L47.3274 44.4534ZM49.0551 44.4791C49.3431 44.4919 49.6311 44.5091 49.9192 44.5306L50.5878 35.5554C50.211 35.5274 49.834 35.5049 49.4569 35.4881L49.0551 44.4791ZM50.7804 44.6075C51.0669 44.6374 51.3534 44.6715 51.64 44.7099L52.835 35.7896C52.4614 35.7395 52.0876 35.695 51.7134 35.656L50.7804 44.6075ZM52.5002 44.8379C52.7846 44.8845 53.0691 44.9353 53.3537 44.9903L55.0624 36.154C54.6936 36.0827 54.3243 36.0168 53.9546 35.9562L52.5002 44.8379ZM54.2051 45.1676C54.4891 45.2309 54.7731 45.2984 55.0573 45.3703L57.2624 36.6446C56.8968 36.5522 56.5307 36.4651 56.164 36.3833L54.2051 45.1676ZM55.8987 45.5953C56.1783 45.6742 56.458 45.7572 56.7379 45.8444L59.4157 37.2521C59.0587 37.1408 58.701 37.0346 58.3428 36.9335L55.8987 45.5953ZM57.5778 46.1186C57.8529 46.2126 58.1282 46.3105 58.4036 46.4125L61.5308 37.9733C61.1828 37.8444 60.8341 37.7203 60.4848 37.601L57.5778 46.1186ZM59.2267 46.7296C59.5012 46.8394 59.7758 46.9532 60.0505 47.0712L63.6014 38.8013C63.2578 38.6537 62.9134 38.511 62.5683 38.373L59.2267 46.7296ZM60.8583 47.4298C61.1261 47.5525 61.3939 47.6792 61.6618 47.8099L65.6065 39.7204C65.2749 39.5587 64.9424 39.4014 64.6092 39.2487L60.8583 47.4298ZM62.4656 48.2136C62.7285 48.3495 62.9915 48.4893 63.2544 48.6329L67.5676 40.7337C67.2455 40.5578 66.9226 40.3862 66.5989 40.2189L62.4656 48.2136ZM64.0352 49.0705C64.2954 49.2201 64.5557 49.3735 64.8159 49.5308L69.4701 41.8276C69.1547 41.637 68.8384 41.4506 68.5213 41.2682L64.0352 49.0705ZM65.5858 50.0071C65.8376 50.1665 66.0894 50.3296 66.3412 50.4963L71.3094 42.9918C71.0073 42.7918 70.7044 42.5957 70.4008 42.4034L65.5858 50.0071ZM67.0962 51.0071C67.3469 51.1803 67.5975 51.3572 67.8481 51.5376L73.1083 44.2349C72.8107 44.0205 72.5123 43.8099 72.213 43.6031L67.0962 51.0071ZM68.5762 52.0725C68.8188 52.2542 69.0613 52.4393 69.3037 52.6278L74.8294 45.5239C74.5442 45.302 74.2581 45.0837 73.9713 44.8688L68.5762 52.0725ZM70.0303 53.2036C70.2666 53.3943 70.5027 53.5883 70.7386 53.7855L76.5107 46.8802C76.2355 46.6501 75.9594 46.4234 75.6826 46.2L70.0303 53.2036ZM71.4372 54.3794C71.6699 54.5806 71.9024 54.785 72.1346 54.9926L78.1322 48.2822C77.8635 48.0421 77.5941 47.8052 77.3238 47.5715L71.4372 54.3794ZM72.8284 55.6228C73.0516 55.8289 73.2746 56.0379 73.4974 56.2499L79.7023 49.7309C79.4467 49.4875 79.1902 49.2472 78.9331 49.0098L72.8284 55.6228ZM74.1649 56.895C74.3872 57.113 74.6092 57.334 74.8309 57.558L81.2272 51.2266C80.9746 50.9714 80.7212 50.7191 80.467 50.4698L74.1649 56.895ZM75.4857 58.2291C75.6985 58.4503 75.911 58.6743 76.1232 58.901L82.6944 52.7513C82.4543 52.4947 82.2134 52.2408 81.9718 51.9897L75.4857 58.2291ZM76.7591 59.5898C76.9707 59.8221 77.182 60.0573 77.3931 60.2952L84.1267 54.3237C83.8894 54.0562 83.6514 53.7914 83.4127 53.5293L76.7591 59.5898ZM78.0123 61.0026C78.2146 61.2367 78.4166 61.4733 78.6182 61.7126L85.5 55.9125C85.2746 55.6451 85.0486 55.3802 84.8218 55.1178L78.0123 61.0026ZM79.2221 62.4381C79.4231 62.6825 79.6237 62.9296 79.824 63.1792L86.8439 57.5471C86.6213 57.2696 86.398 56.9947 86.174 56.7222L79.2221 62.4381ZM80.4117 63.9205C80.6036 64.1654 80.7951 64.4126 80.9862 64.6623L88.1324 59.1913C87.921 58.9152 87.709 58.6414 87.4963 58.3699L80.4117 63.9205ZM81.5586 65.4185C81.749 65.673 81.939 65.9299 82.1287 66.1891L89.3927 60.8756C89.184 60.5903 88.9746 60.3072 88.7645 60.0265L81.5586 65.4185ZM82.6889 66.9635C82.8705 67.2174 83.0517 67.4734 83.2325 67.7317L90.6049 62.5694C90.4067 62.2864 90.2079 62.0056 90.0085 61.7269L82.6889 66.9635ZM83.7739 68.5132C83.954 68.7759 84.1337 69.0409 84.313 69.308L91.7863 64.293C91.5906 64.0015 91.3944 63.7121 91.1975 63.4248L83.7739 68.5132ZM84.8494 70.1159C85.0211 70.3771 85.1923 70.6403 85.3632 70.9056L92.9299 66.0329C92.7442 65.7445 92.5579 65.4581 92.371 65.1736L84.8494 70.1159ZM85.8745 71.7077C86.0446 71.9772 86.2142 72.2486 86.3835 72.5222L94.037 67.7868C93.8537 67.4906 93.6698 67.1963 93.4853 66.9039L85.8745 71.7077ZM86.89 73.349C86.9742 73.4878 87.0583 73.6271 87.1422 73.767L94.8578 69.1333C94.767 68.9822 94.6761 68.8316 94.5851 68.6816L86.89 73.349Z" fill="#403F30"></path>
</svg><style>@media (prefers-color-scheme: light) { :root { filter: none; } }
</style></svg>