<svg width="205" height="130" viewBox="0 0 205 130" fill="none" xmlns="http://www.w3.org/2000/svg">
<path d="M25.3368 114.333C23.5794 116.091 23.5794 118.94 25.3368 120.697C27.0941 122.455 29.9434 122.455 31.7007 120.697L25.3368 114.333ZM31.7007 120.697C71.9434 80.4547 129.094 80.4547 169.337 120.697L175.701 114.333C131.943 70.576 69.0941 70.576 25.3368 114.333L31.7007 120.697Z" fill="#4B4A36"/>
<path d="M25.3368 114.333C23.5794 116.09 23.5794 118.94 25.3368 120.697C27.0941 122.454 29.9434 122.454 31.7007 120.697L25.3368 114.333ZM31.7007 120.697C31.8149 120.583 31.9291 120.469 32.0435 120.355L25.7053 113.966C25.5823 114.088 25.4594 114.21 25.3368 114.333L31.7007 120.697ZM32.7315 119.678C32.9614 119.454 33.1918 119.231 33.4226 119.009L27.1886 112.518C26.9402 112.757 26.6923 112.997 26.4451 113.238L32.7315 119.678ZM34.1168 118.348C34.3487 118.129 34.5811 117.911 34.8139 117.695L28.6864 111.103C28.4356 111.336 28.1854 111.57 27.9357 111.806L34.1168 118.348ZM35.5141 117.049C35.7518 116.832 35.99 116.616 36.2287 116.401L30.2109 109.709C29.9536 109.94 29.6968 110.173 29.4407 110.407L35.5141 117.049ZM36.9469 115.761C37.1867 115.549 37.4271 115.338 37.668 115.129L31.7631 108.336C31.5032 108.562 31.2439 108.79 30.9852 109.018L36.9469 115.761ZM38.392 114.504C38.6338 114.298 38.8761 114.092 39.1189 113.888L33.3294 106.998C33.0672 107.218 32.8056 107.44 32.5445 107.663L38.392 114.504ZM39.8547 113.276C40.1024 113.071 40.3506 112.868 40.5992 112.666L34.9287 105.677C34.6599 105.895 34.3918 106.115 34.1242 106.336L39.8547 113.276ZM41.3465 112.065C41.5961 111.866 41.8462 111.669 42.0967 111.473L36.548 104.386C36.277 104.599 36.0066 104.812 35.7367 105.027L41.3465 112.065ZM42.8496 110.888C43.1016 110.694 43.354 110.502 43.6069 110.311L38.1827 103.129C37.9088 103.336 37.6355 103.544 37.3628 103.754L42.8496 110.888ZM44.3768 109.735C44.6339 109.544 44.8915 109.355 45.1495 109.167L39.8537 101.89C39.5741 102.094 39.2951 102.299 39.0165 102.505L44.3768 109.735ZM45.9248 108.608C46.1837 108.423 46.443 108.24 46.7028 108.058L41.5379 100.687C41.2561 100.885 40.9749 101.084 40.6942 101.284L45.9248 108.608ZM47.4833 107.516C47.7472 107.335 48.0114 107.155 48.2762 106.976L43.2453 99.5138C42.9579 99.7075 42.6711 99.9028 42.3847 100.1L47.4833 107.516ZM49.073 106.444C49.3391 106.269 49.6056 106.094 49.8724 105.921L44.979 98.3679C44.689 98.5558 44.3995 98.7452 44.1106 98.9362L49.073 106.444ZM50.6743 105.407C50.9421 105.237 51.2102 105.069 51.4787 104.902L46.725 97.2594C46.433 97.441 46.1415 97.6242 45.8505 97.809L50.6743 105.407ZM52.2925 104.401C52.5654 104.234 52.8387 104.07 53.1124 103.906L48.5023 96.1767C48.2045 96.3544 47.9071 96.5336 47.6102 96.7145L52.2925 104.401ZM53.9346 103.421C54.2091 103.261 54.4839 103.102 54.7592 102.945L50.2954 95.13C49.9956 95.3013 49.6963 95.4741 49.3974 95.6486L53.9346 103.421ZM55.586 102.478C55.8638 102.323 56.1419 102.169 56.4204 102.017L52.1056 94.1187C51.802 94.2846 51.4989 94.452 51.1962 94.6211L55.586 102.478ZM57.2618 101.563C57.5426 101.413 57.8238 101.264 58.1054 101.117L53.9431 93.1376C53.6359 93.2978 53.3292 93.4597 53.023 93.6232L57.2618 101.563ZM58.9512 100.681C59.2334 100.538 59.5161 100.395 59.799 100.255L55.7915 92.196C55.4825 92.3497 55.174 92.505 54.866 92.6619L58.9512 100.681ZM60.6532 99.8349C60.9399 99.6958 61.2271 99.5582 61.5145 99.4222L57.6651 91.2869C57.351 91.4356 57.0374 91.5859 56.7242 91.7378L60.6532 99.8349ZM62.3779 99.0188C62.666 98.8859 62.9545 98.7546 63.2433 98.6248L59.5545 90.4155C59.2388 90.5574 58.9235 90.7009 58.6086 90.8462L62.3779 99.0188ZM64.1105 98.2403C64.4012 98.1131 64.6921 97.9875 64.9833 97.8635L61.4577 89.5828C61.139 89.7185 60.8208 89.8559 60.5029 89.995L64.1105 98.2403ZM65.8629 97.4942C66.1564 97.3727 66.4502 97.2528 66.7443 97.1345L63.385 88.7849C63.063 88.9144 62.7414 89.0457 62.4202 89.1787L65.8629 97.4942ZM67.6275 96.7843C67.9221 96.6691 68.2171 96.5556 68.5123 96.4436L65.3213 88.0283C64.9979 88.151 64.6748 88.2753 64.3521 88.4014L67.6275 96.7843ZM69.4024 96.1113C69.7007 96.0016 69.9994 95.8935 70.2983 95.787L67.2784 87.3088C66.9508 87.4255 66.6235 87.5439 66.2965 87.6642L69.4024 96.1113ZM71.1958 95.4725C71.4952 95.3692 71.7949 95.2676 72.0948 95.1676L69.2484 86.6296C68.9194 86.7393 68.5907 86.8507 68.2624 86.9639L71.1958 95.4725ZM72.9954 94.8725C73.297 94.7754 73.5988 94.6799 73.9009 94.586L71.2299 85.9915C70.8983 86.0945 70.5671 86.1993 70.2362 86.3059L72.9954 94.8725ZM74.8111 94.3082C75.1147 94.2173 75.4185 94.128 75.7226 94.0403L73.2296 85.3925C72.8957 85.4888 72.5621 85.5868 72.2289 85.6866L74.8111 94.3082ZM76.6355 93.7823C76.94 93.6979 77.2447 93.6152 77.5496 93.5341L75.2362 84.8365C74.9012 84.9256 74.5665 85.0165 74.2321 85.1091L76.6355 93.7823ZM78.4686 93.2947C78.7758 93.2164 79.0833 93.1398 79.3909 93.0648L77.2594 84.3208C76.9213 84.4033 76.5834 84.4875 76.2458 84.5735L78.4686 93.2947ZM80.3143 92.8448C80.6223 92.7731 80.9305 92.7031 81.2389 92.6347L79.2908 83.8481C78.9517 83.9233 78.6129 84.0002 78.2744 84.079L80.3143 92.8448ZM82.1644 92.4346C82.4743 92.3693 82.7843 92.3057 83.0945 92.2437L81.3315 83.4181C80.9903 83.4862 80.6493 83.5562 80.3085 83.628L82.1644 92.4346ZM84.0267 92.0626C84.3376 92.0039 84.6486 91.9469 84.9598 91.8915L83.3834 83.0306C83.0411 83.0915 82.6989 83.1543 82.3569 83.2188L84.0267 92.0626ZM85.8936 91.7305C86.2051 91.6784 86.5166 91.6281 86.8283 91.5794L85.4398 82.6872C85.0967 82.7408 84.7538 82.7962 84.4111 82.8534L85.8936 91.7305ZM87.767 91.438C88.0801 91.3925 88.3934 91.3487 88.7067 91.3065L87.5075 82.3868C87.1625 82.4332 86.8177 82.4814 86.473 82.5315L87.767 91.438ZM89.647 91.1852C89.9605 91.1464 90.2742 91.1094 90.5879 91.074L89.5788 82.1307C89.2333 82.1697 88.888 82.2105 88.5428 82.2532L89.647 91.1852ZM91.5296 90.9728C91.8443 90.9407 92.159 90.9102 92.4739 90.8815L91.6559 81.9188C91.3091 81.9504 90.9624 81.9839 90.6158 82.0193L91.5296 90.9728ZM93.4186 90.8004C93.7336 90.775 94.0487 90.7513 94.3638 90.7294L93.7376 81.7512C93.3905 81.7754 93.0434 81.8015 92.6965 81.8294L93.4186 90.8004ZM95.3092 90.6685C95.6246 90.6499 95.9399 90.633 96.2554 90.6178L95.8214 81.6282C95.4739 81.645 95.1265 81.6636 94.7791 81.6841L95.3092 90.6685ZM97.2025 90.5771C97.5183 90.5653 97.8341 90.5551 98.1499 90.5466L97.9087 81.5499C97.5608 81.5592 97.2129 81.5704 96.865 81.5834L97.2025 90.5771ZM99.0974 90.5263C99.4132 90.5212 99.7291 90.5179 100.045 90.5162L99.9967 81.5163C99.6487 81.5182 99.3007 81.5219 98.9527 81.5275L99.0974 90.5263ZM100.993 90.5162C101.308 90.5179 101.624 90.5212 101.94 90.5263L102.085 81.5275C101.737 81.5219 101.389 81.5182 101.041 81.5163L100.993 90.5162ZM102.888 90.5466C103.203 90.5551 103.519 90.5653 103.835 90.5771L104.173 81.5835C103.825 81.5704 103.477 81.5592 103.129 81.5499L102.888 90.5466ZM104.782 90.6178C105.098 90.633 105.413 90.6499 105.728 90.6685L106.258 81.6841C105.911 81.6636 105.564 81.645 105.216 81.6282L104.782 90.6178ZM106.674 90.7294C106.989 90.7513 107.304 90.775 107.619 90.8004L108.341 81.8294C107.994 81.8015 107.647 81.7754 107.3 81.7512L106.674 90.7294ZM108.564 90.8815C108.878 90.9102 109.193 90.9407 109.508 90.9728L110.422 82.0193C110.075 81.9839 109.728 81.9504 109.382 81.9188L108.564 90.8815ZM110.45 91.074C110.763 91.1094 111.077 91.1464 111.391 91.1852L112.495 82.2532C112.15 82.2105 111.804 82.1697 111.459 82.1307L110.45 91.074ZM112.331 91.3065C112.644 91.3487 112.957 91.3925 113.27 91.438L114.565 82.5315C114.22 82.4814 113.875 82.4332 113.53 82.3868L112.331 91.3065ZM114.209 91.5794C114.521 91.6281 114.832 91.6785 115.144 91.7305L116.626 82.8534C116.284 82.7962 115.941 82.7408 115.598 82.6872L114.209 91.5794ZM116.078 91.8915C116.389 91.9469 116.7 92.0039 117.011 92.0626L118.681 83.2189C118.339 83.1543 117.996 83.0915 117.654 83.0306L116.078 91.8915ZM117.943 92.2437C118.253 92.3057 118.563 92.3693 118.873 92.4346L120.729 83.628C120.388 83.5562 120.047 83.4862 119.706 83.4181L117.943 92.2437ZM119.799 92.6347C120.107 92.7031 120.415 92.7731 120.723 92.8448L122.763 84.079C122.425 84.0002 122.086 83.9233 121.747 83.8481L119.799 92.6347ZM121.647 93.0648C121.954 93.1398 122.262 93.2164 122.569 93.2947L124.792 84.5735C124.454 84.4875 124.116 84.4033 123.778 84.3209L121.647 93.0648ZM123.488 93.5341C123.793 93.6152 124.098 93.6979 124.402 93.7823L126.805 85.1091C126.471 85.0165 126.136 84.9256 125.801 84.8365L123.488 93.5341ZM125.315 94.0404C125.619 94.128 125.923 94.2173 126.226 94.3083L128.809 85.6866C128.475 85.5868 128.142 85.4888 127.808 85.3925L125.315 94.0404ZM127.137 94.586C127.439 94.6799 127.741 94.7754 128.042 94.8725L130.801 86.3059C130.47 86.1993 130.139 86.0945 129.808 85.9915L127.137 94.586ZM128.943 95.1676C129.243 95.2676 129.542 95.3692 129.842 95.4725L132.775 86.9639C132.447 86.8507 132.118 86.7393 131.789 86.6296L128.943 95.1676ZM130.739 95.787C131.038 95.8935 131.337 96.0016 131.635 96.1113L134.741 87.6642C134.414 87.5439 134.087 87.4255 133.759 87.3088L130.739 95.787ZM132.525 96.4436C132.82 96.5556 133.115 96.6691 133.41 96.7843L136.685 88.4015C136.363 88.2754 136.04 88.151 135.716 88.0283L132.525 96.4436ZM134.293 97.1345C134.587 97.2528 134.881 97.3727 135.175 97.4942L138.617 89.1787C138.296 89.0457 137.975 88.9145 137.653 88.7849L134.293 97.1345ZM136.054 97.8635C136.345 97.9875 136.636 98.1131 136.927 98.2403L140.535 89.995C140.217 89.8559 139.899 89.7185 139.58 89.5829L136.054 97.8635ZM137.794 98.6249C138.083 98.7546 138.371 98.8859 138.66 99.0188L142.429 90.8462C142.114 90.7009 141.799 90.5574 141.483 90.4155L137.794 98.6249ZM139.523 99.4222C139.81 99.5582 140.098 99.6958 140.384 99.835L144.313 91.7379C144 91.5859 143.687 91.4356 143.372 91.287L139.523 99.4222ZM141.238 100.255C141.521 100.395 141.804 100.538 142.086 100.681L146.172 92.6619C145.863 92.505 145.555 92.3497 145.246 92.1961L141.238 100.255ZM142.932 101.117C143.214 101.264 143.495 101.413 143.776 101.563L148.015 93.6233C147.708 93.4597 147.402 93.2979 147.094 93.1376L142.932 101.117ZM144.617 102.017C144.896 102.169 145.174 102.323 145.451 102.478L149.841 94.6212C149.539 94.4521 149.236 94.2846 148.932 94.1187L144.617 102.017ZM146.278 102.945C146.554 103.102 146.828 103.261 147.103 103.421L151.64 95.6486C151.341 95.4742 151.042 95.3013 150.742 95.1301L146.278 102.945ZM147.925 103.906C148.199 104.07 148.472 104.234 148.745 104.401L153.427 96.7145C153.13 96.5337 152.833 96.3544 152.535 96.1767L147.925 103.906ZM149.559 104.902C149.827 105.069 150.095 105.237 150.363 105.407L155.187 97.809C154.896 97.6243 154.605 97.4411 154.312 97.2594L149.559 104.902ZM151.165 105.921C151.432 106.094 151.698 106.269 151.965 106.444L156.927 98.9362C156.638 98.7452 156.349 98.5558 156.059 98.368L151.165 105.921ZM152.761 106.976C153.026 107.155 153.29 107.335 153.554 107.516L158.653 100.1C158.366 99.9029 158.08 99.7076 157.792 99.5138L152.761 106.976ZM154.335 108.058C154.595 108.24 154.854 108.423 155.113 108.608L160.343 101.284C160.063 101.084 159.781 100.885 159.5 100.688L154.335 108.058ZM155.888 109.167C156.146 109.355 156.404 109.544 156.661 109.735L162.021 102.505C161.743 102.299 161.463 102.094 161.184 101.89L155.888 109.167ZM157.431 110.311C157.684 110.502 157.936 110.694 158.188 110.888L163.675 103.754C163.402 103.544 163.129 103.336 162.855 103.129L157.431 110.311ZM158.941 111.473C159.191 111.669 159.441 111.866 159.691 112.065L165.301 105.027C165.031 104.812 164.761 104.599 164.49 104.386L158.941 111.473ZM160.438 112.666C160.687 112.868 160.935 113.071 161.183 113.276L166.913 106.336C166.646 106.115 166.378 105.895 166.109 105.677L160.438 112.666ZM161.919 113.889C162.161 114.092 162.404 114.298 162.646 114.505L168.493 107.663C168.232 107.44 167.97 107.218 167.708 106.998L161.919 113.889ZM163.37 115.129C163.61 115.338 163.851 115.549 164.091 115.761L170.052 109.019C169.794 108.79 169.534 108.562 169.274 108.337L163.37 115.129ZM164.809 116.401C165.048 116.616 165.286 116.832 165.523 117.049L171.597 110.407C171.341 110.173 171.084 109.94 170.827 109.709L164.809 116.401ZM166.224 117.695C166.457 117.911 166.689 118.129 166.921 118.348L173.102 111.806C172.852 111.571 172.602 111.336 172.351 111.103L166.224 117.695ZM167.615 119.009C167.846 119.231 168.076 119.454 168.306 119.679L174.592 113.238C174.345 112.997 174.097 112.757 173.849 112.518L167.615 119.009ZM168.994 120.356C169.108 120.469 169.223 120.583 169.337 120.697L175.701 114.333C175.578 114.21 175.455 114.088 175.332 113.966L168.994 120.356Z" fill="#403F30"/>
<path d="M143.764 90.135C141.303 88.9517 139.382 87.5788 138.003 86.0163C136.663 84.4722 135.781 83.0069 135.359 81.6203C134.955 80.1953 134.892 79.1944 135.169 78.6176C135.28 78.3869 135.477 78.174 135.761 77.9787C136.044 77.7835 136.319 77.6552 136.585 77.5938C136.851 77.5325 137.08 77.548 137.272 77.6404C137.619 77.8068 137.844 78.2232 137.95 78.8895C138.113 79.5358 138.364 80.3429 138.703 81.3109C139.043 82.2789 139.669 83.2902 140.582 84.3447C141.514 85.3608 142.922 86.3218 144.806 87.2277C146.767 88.1706 148.578 88.6387 150.238 88.6321C151.937 88.6439 153.437 88.1818 154.739 87.2456C156.099 86.2895 157.231 84.8693 158.137 82.9851C159.098 80.9855 159.5 79.2141 159.343 77.6708C159.242 76.1075 158.791 74.6832 157.989 73.398C157.243 72.0928 156.289 70.8767 155.127 69.7497C154.021 68.6027 152.897 67.4465 151.753 66.281C150.647 65.1341 149.693 63.918 148.891 62.6327C148.107 61.309 147.655 59.8371 147.534 58.2168C147.452 56.6151 147.901 54.7952 148.881 52.7572C149.879 50.6807 151.058 49.1644 152.417 48.2083C153.834 47.2322 155.313 46.6654 156.857 46.5079C158.418 46.312 159.937 46.403 161.412 46.7809C162.906 47.1203 164.287 47.5951 165.556 48.2052C166.71 48.7598 167.779 49.3921 168.763 50.102C169.786 50.8305 170.685 51.5703 171.46 52.3217C172.253 53.0345 172.826 53.7127 173.18 54.356C173.533 54.9994 173.608 55.5326 173.405 55.9555C173.294 56.1863 173.116 56.4085 172.871 56.6222C172.645 56.7974 172.39 56.935 172.105 57.0348C171.82 57.1346 171.543 57.1198 171.274 56.9904C170.967 56.8425 170.588 56.4476 170.139 55.8057C169.709 55.1254 169.039 54.3534 168.128 53.4896C167.237 52.5874 165.926 51.7204 164.195 50.8884C162.811 50.2228 161.325 49.7688 159.737 49.5262C158.188 49.3021 156.722 49.4966 155.338 50.1096C153.954 50.7226 152.8 51.9904 151.876 53.9131C151.081 55.5666 150.789 57.0596 151.001 58.3921C151.251 59.7432 151.804 61.0037 152.662 62.1736C153.52 63.3434 154.511 64.4826 155.635 65.5912C156.777 66.6612 157.902 67.8174 159.009 69.0598C160.116 70.3021 161.015 71.6336 161.705 73.0542C162.433 74.4932 162.792 76.1098 162.782 77.9038C162.81 79.7163 162.269 81.7761 161.16 84.0833C159.847 86.8135 158.256 88.7942 156.385 90.0254C154.554 91.2751 152.559 91.8785 150.402 91.8355C148.284 91.8111 146.071 91.2442 143.764 90.135Z" fill="black"/>
<path d="M110.514 80.8168C108.137 80.5738 106.017 79.9068 104.156 78.8158C102.337 77.7292 100.952 76.1723 100.002 74.145C99.0977 72.0797 98.8106 69.4341 99.1404 66.2083L101.217 45.8982C101.547 42.6723 102.361 40.1608 103.66 38.3636C105.005 36.5282 106.679 35.2625 108.68 34.5665C110.724 33.8747 112.934 33.6504 115.311 33.8934C117.985 34.1668 120.229 34.868 122.044 35.9971C123.858 37.1262 125.19 38.5705 126.04 40.33C126.936 42.0514 127.28 43.9308 127.072 45.9682C127.011 46.5624 126.819 46.9717 126.496 47.196C126.173 47.4203 125.778 47.5085 125.311 47.4608C124.886 47.4174 124.536 47.2744 124.261 47.0318C123.986 46.7892 123.851 46.4323 123.856 45.961C123.826 44.1566 123.468 42.619 122.783 41.348C122.099 40.0771 121.086 39.0729 119.746 38.3355C118.449 37.6024 116.866 37.1404 114.998 36.9494C111.985 36.6413 109.542 37.2494 107.671 38.7736C105.804 40.2554 104.692 42.7366 104.337 46.2171L102.26 66.5273C101.904 70.0078 102.488 72.6837 104.013 74.5551C105.541 76.3841 107.812 77.4526 110.826 77.7607C113.84 78.0688 116.28 77.482 118.147 76.0002C120.061 74.4803 121.196 71.9801 121.552 68.4996L122.43 59.9044L113.071 58.9475C112.647 58.9041 112.322 58.7208 112.098 58.3977C111.916 58.0789 111.845 57.7284 111.884 57.3464C111.923 56.9644 112.064 56.6357 112.306 56.3603C112.591 56.0892 112.946 55.9754 113.371 56.0188L124.64 57.1709C125.022 57.21 125.304 57.3889 125.486 57.7077C125.714 57.9884 125.809 58.3198 125.77 58.7018L124.735 68.825C124.405 72.0509 123.567 74.5815 122.222 76.4168C120.923 78.214 119.252 79.4585 117.208 80.1502C115.164 80.8419 112.933 81.0641 110.514 80.8168Z" fill="black"/>
<path d="M83.6575 81.3664C83.2366 81.4362 82.8404 81.3939 82.4687 81.2393C82.1322 81.0356 81.929 80.7233 81.8592 80.3024L74.6328 36.7376C74.563 36.3167 74.6579 35.9766 74.9177 35.7173C75.2195 35.451 75.5809 35.2829 76.0018 35.2131C76.3806 35.1502 76.7558 35.1961 77.1275 35.3507C77.4991 35.5053 77.7199 35.7931 77.7897 36.214L85.016 79.7787C85.0859 80.1996 84.9734 80.5643 84.6785 80.8727C84.3767 81.139 84.0364 81.3036 83.6575 81.3664Z" fill="black"/>
<path d="M71.1834 83.6819C70.7531 83.8692 70.2792 83.7962 69.7619 83.463C69.2667 83.0736 68.8166 82.7344 68.4116 82.4453L51.3571 68.4399L43.259 71.9647L51.4324 90.743C51.6026 91.1342 51.5824 91.5153 51.3716 91.8863C51.1437 92.2181 50.8538 92.4607 50.5017 92.6139C50.1105 92.7842 49.7158 92.8396 49.3177 92.7802C48.9417 92.6647 48.6685 92.4113 48.4982 92.0201L30.8744 51.5293C30.7381 51.2164 30.7253 50.9195 30.8357 50.6387C30.9683 50.3018 31.2217 50.0287 31.5959 49.8193L41.6892 45.4261C43.88 44.4725 46.0676 43.9392 48.2519 43.826C50.4192 43.6738 52.4362 44.1918 54.303 45.3802C56.1527 46.5295 57.7076 48.5517 58.9676 51.4467C60.0404 53.9113 60.487 56.1134 60.3074 58.0529C60.167 59.9753 59.5518 61.6623 58.4619 63.1139C57.3941 64.5094 56.02 65.7357 54.3396 66.7928L71.6467 80.8976C71.776 80.9809 71.8662 81.0813 71.9173 81.1986C72.0075 81.299 72.0697 81.3882 72.1037 81.4665C72.2229 81.7403 72.2554 82.0287 72.201 82.3315C72.1297 82.5952 72.0107 82.8564 71.8441 83.1151C71.6775 83.3737 71.4572 83.5627 71.1834 83.6819ZM42.084 69.2653L50.4756 65.6128C53.2532 64.4038 55.2133 62.7597 56.3556 60.6803C57.5201 58.5448 57.4213 55.9122 56.059 52.7825C54.7138 49.6919 52.8715 47.8646 50.5321 47.3007C48.2318 46.7198 45.6928 47.0339 42.9152 48.2429L34.5236 51.8953L42.084 69.2653Z" fill="black"/>
</svg>
