<svg width="205" height="130" viewBox="0 0 205 130" fill="none" xmlns="http://www.w3.org/2000/svg">
<path d="M109.049 41.542L109.807 40.2477L107.218 38.7315L106.46 40.0258L109.049 41.542ZM106.46 40.0258L103.92 44.3625L106.509 45.8788L109.049 41.542L106.46 40.0258ZM114.041 83.4816C118.731 80.3275 122.619 75.351 124.091 69.1692L121.172 68.4746C119.894 73.8437 116.502 78.2109 112.367 80.9922L114.041 83.4816ZM103.92 44.3625C98.5158 53.5887 96.1305 66.0988 97.3341 74.9366C97.9285 79.3012 99.4591 83.1928 102.402 85.0987C105.516 87.1151 109.52 86.5216 114.041 83.4816L112.367 80.9922C108.279 83.7414 105.67 83.6407 104.033 82.5806C102.225 81.41 100.868 78.6556 100.307 74.5317C99.1981 66.3925 101.426 54.5553 106.509 45.8788L103.92 44.3625Z" fill="black"/>
<path d="M122.336 65.5039C122.818 65.5039 121.317 68.1295 121.215 68.5117C121.789 68.9959 123.309 69.2757 123.977 69.3555C124.465 68.0375 125.3 60.9955 126 58C124.602 63.2424 119.037 66.8479 119 66.9872C119.054 66.9408 122.261 65.5039 122.336 65.5039Z" fill="black" stroke="black" stroke-width="0.1" stroke-linecap="round"/>
<path d="M111.684 36.9802C111.684 37.895 111.418 38.6814 111.038 39.2135C110.657 39.7476 110.22 39.9604 109.842 39.9604C109.464 39.9604 109.028 39.7476 108.646 39.2135C108.266 38.6814 108 37.895 108 36.9802C108 36.0654 108.266 35.279 108.646 34.7469C109.028 34.2128 109.464 34 109.842 34C110.22 34 110.657 34.2128 111.038 34.7469C111.418 35.279 111.684 36.0654 111.684 36.9802Z" stroke="black" stroke-width="2"/>
<path d="M25.3368 113.269C23.5794 115.026 23.5794 117.875 25.3368 119.632C27.0941 121.39 29.9434 121.39 31.7007 119.632L25.3368 113.269ZM31.7007 119.632C71.9434 79.3898 129.094 79.3898 169.337 119.632L175.701 113.269C131.943 69.5112 69.0941 69.5112 25.3368 113.269L31.7007 119.632Z" fill="#4B4A36"/>
<path d="M25.3368 113.268C23.5794 115.026 23.5794 117.875 25.3368 119.632C27.0941 121.389 29.9434 121.389 31.7007 119.632L25.3368 113.268ZM31.7007 119.632C31.8149 119.518 31.9291 119.404 32.0435 119.291L25.7053 112.901C25.5823 113.023 25.4594 113.145 25.3368 113.268L31.7007 119.632ZM32.7315 118.614C32.9614 118.389 33.1918 118.166 33.4226 117.945L27.1886 111.453C26.9402 111.692 26.6923 111.932 26.4451 112.173L32.7315 118.614ZM34.1168 117.283C34.3487 117.064 34.5811 116.846 34.8139 116.63L28.6864 110.038C28.4356 110.271 28.1854 110.506 27.9357 110.742L34.1168 117.283ZM35.5141 115.984C35.7518 115.767 35.99 115.551 36.2287 115.336L30.2109 108.644C29.9536 108.876 29.6968 109.108 29.4407 109.343L35.5141 115.984ZM36.9469 114.696C37.1867 114.484 37.4271 114.273 37.668 114.064L31.7631 107.272C31.5032 107.498 31.2439 107.725 30.9852 107.954L36.9469 114.696ZM38.392 113.44C38.6338 113.233 38.8761 113.028 39.1189 112.824L33.3294 105.933C33.0672 106.153 32.8056 106.375 32.5445 106.598L38.392 113.44ZM39.8547 112.211C40.1024 112.006 40.3506 111.803 40.5992 111.601L34.9287 104.612C34.6599 104.831 34.3918 105.05 34.1242 105.271L39.8547 112.211ZM41.3465 111C41.5961 110.801 41.8462 110.604 42.0967 110.408L36.548 103.322C36.277 103.534 36.0066 103.748 35.7367 103.963L41.3465 111ZM42.8496 109.823C43.1016 109.63 43.354 109.437 43.6069 109.246L38.1827 102.064C37.9088 102.271 37.6355 102.48 37.3628 102.689L42.8496 109.823ZM44.3768 108.67C44.6339 108.479 44.8915 108.29 45.1495 108.102L39.8537 100.825C39.5741 101.029 39.2951 101.234 39.0165 101.44L44.3768 108.67ZM45.9248 107.544C46.1837 107.359 46.443 107.175 46.7028 106.993L41.5379 99.6227C41.2561 99.8201 40.9749 100.019 40.6942 100.22L45.9248 107.544ZM47.4833 106.451C47.7472 106.27 48.0114 106.09 48.2762 105.912L43.2453 98.449C42.9579 98.6428 42.6711 98.8381 42.3847 99.0349L47.4833 106.451ZM49.073 105.38C49.3391 105.204 49.6056 105.029 49.8724 104.857L44.979 97.3032C44.689 97.491 44.3995 97.6804 44.1106 97.8714L49.073 105.38ZM50.6743 104.342C50.9421 104.172 51.2102 104.004 51.4787 103.837L46.725 96.1946C46.433 96.3763 46.1415 96.5595 45.8505 96.7442L50.6743 104.342ZM52.2925 103.336C52.5654 103.17 52.8387 103.005 53.1124 102.842L48.5023 95.112C48.2045 95.2896 47.9071 95.4689 47.6102 95.6497L52.2925 103.336ZM53.9346 102.356C54.2091 102.196 54.4839 102.038 54.7592 101.88L50.2954 94.0653C49.9956 94.2365 49.6963 94.4094 49.3974 94.5838L53.9346 102.356ZM55.586 101.413C55.8638 101.258 56.1419 101.104 56.4204 100.952L52.1056 93.054C51.802 93.2198 51.4989 93.3873 51.1962 93.5564L55.586 101.413ZM57.2618 100.498C57.5426 100.348 57.8238 100.199 58.1054 100.053L53.9431 92.0729C53.6359 92.2331 53.3292 92.395 53.023 92.5585L57.2618 100.498ZM58.9512 99.6166C59.2334 99.4728 59.5161 99.3305 59.799 99.1898L55.7915 91.1313C55.4825 91.2849 55.174 91.4402 54.866 91.5971L58.9512 99.6166ZM60.6532 98.7702C60.9399 98.631 61.2271 98.4934 61.5145 98.3574L57.6651 90.2222C57.351 90.3708 57.0374 90.5211 56.7242 90.6731L60.6532 98.7702ZM62.3779 97.954C62.666 97.8212 62.9545 97.6898 63.2433 97.5601L59.5545 89.3507C59.2388 89.4926 58.9235 89.6362 58.6086 89.7814L62.3779 97.954ZM64.1105 97.1755C64.4012 97.0483 64.6921 96.9228 64.9833 96.7988L61.4577 88.5181C61.139 88.6538 60.8208 88.7911 60.5029 88.9302L64.1105 97.1755ZM65.8629 96.4294C66.1564 96.3079 66.4502 96.188 66.7443 96.0697L63.385 87.7201C63.063 87.8497 62.7414 87.981 62.4202 88.1139L65.8629 96.4294ZM67.6275 95.7195C67.9221 95.6044 68.2171 95.4908 68.5123 95.3789L65.3213 86.9636C64.9979 87.0862 64.6748 87.2106 64.3521 87.3367L67.6275 95.7195ZM69.4024 95.0465C69.7007 94.9368 69.9994 94.8287 70.2983 94.7222L67.2784 86.244C66.9508 86.3607 66.6235 86.4792 66.2965 86.5994L69.4024 95.0465ZM71.1958 94.4077C71.4952 94.3045 71.7949 94.2029 72.0948 94.1029L69.2484 85.5649C68.9194 85.6745 68.5907 85.786 68.2624 85.8992L71.1958 94.4077ZM72.9954 93.8077C73.297 93.7106 73.5988 93.6151 73.9009 93.5212L71.2299 84.9267C70.8983 85.0297 70.5671 85.1345 70.2362 85.2411L72.9954 93.8077ZM74.8111 93.2435C75.1147 93.1525 75.4185 93.0632 75.7226 92.9756L73.2296 84.3278C72.8957 84.424 72.5621 84.522 72.2289 84.6219L74.8111 93.2435ZM76.6355 92.7175C76.94 92.6331 77.2447 92.5504 77.5496 92.4693L75.2362 83.7717C74.9012 83.8608 74.5665 83.9517 74.2321 84.0444L76.6355 92.7175ZM78.4686 92.23C78.7758 92.1517 79.0833 92.075 79.3909 92L77.2594 83.2561C76.9213 83.3385 76.5834 83.4227 76.2458 83.5088L78.4686 92.23ZM80.3143 91.78C80.6223 91.7083 80.9305 91.6383 81.2389 91.57L79.2908 82.7833C78.9517 82.8585 78.6129 82.9355 78.2744 83.0143L80.3143 91.78ZM82.1644 91.3698C82.4743 91.3045 82.7843 91.2409 83.0945 91.1789L81.3315 82.3533C80.9903 82.4215 80.6493 82.4915 80.3085 82.5633L82.1644 91.3698ZM84.0267 90.9978C84.3376 90.9391 84.6486 90.8821 84.9598 90.8268L83.3834 81.9659C83.0411 82.0268 82.6989 82.0895 82.3569 82.1541L84.0267 90.9978ZM85.8936 90.6657C86.2051 90.6137 86.5166 90.5633 86.8283 90.5147L85.4398 81.6224C85.0967 81.676 84.7538 81.7314 84.4111 81.7887L85.8936 90.6657ZM87.767 90.3732C88.0801 90.3277 88.3934 90.2839 88.7067 90.2418L87.5075 81.322C87.1625 81.3684 86.8177 81.4166 86.473 81.4667L87.767 90.3732ZM89.647 90.1204C89.9605 90.0817 90.2742 90.0446 90.5879 90.0092L89.5788 81.0659C89.2333 81.1049 88.888 81.1458 88.5428 81.1884L89.647 90.1204ZM91.5296 89.908C91.8443 89.8759 92.159 89.8455 92.4739 89.8167L91.6559 80.854C91.3091 80.8856 90.9624 80.9192 90.6158 80.9545L91.5296 89.908ZM93.4186 89.7356C93.7336 89.7102 94.0487 89.6866 94.3638 89.6646L93.7376 80.6864C93.3905 80.7106 93.0434 80.7367 92.6965 80.7646L93.4186 89.7356ZM95.3092 89.6037C95.6246 89.5851 95.9399 89.5682 96.2554 89.553L95.8214 80.5635C95.4739 80.5802 95.1265 80.5989 94.7791 80.6194L95.3092 89.6037ZM97.2025 89.5124C97.5183 89.5005 97.8341 89.4903 98.1499 89.4819L97.9087 80.4851C97.5608 80.4944 97.2129 80.5056 96.865 80.5187L97.2025 89.5124ZM99.0974 89.4616C99.4132 89.4565 99.7291 89.4531 100.045 89.4514L99.9967 80.4515C99.6487 80.4534 99.3007 80.4571 98.9527 80.4627L99.0974 89.4616ZM100.993 89.4514C101.308 89.4531 101.624 89.4565 101.94 89.4616L102.085 80.4627C101.737 80.4571 101.389 80.4534 101.041 80.4515L100.993 89.4514ZM102.888 89.4819C103.203 89.4903 103.519 89.5005 103.835 89.5124L104.173 80.5187C103.825 80.5056 103.477 80.4944 103.129 80.4851L102.888 89.4819ZM104.782 89.553C105.098 89.5682 105.413 89.5851 105.728 89.6037L106.258 80.6194C105.911 80.5989 105.564 80.5802 105.216 80.5635L104.782 89.553ZM106.674 89.6646C106.989 89.6866 107.304 89.7103 107.619 89.7356L108.341 80.7646C107.994 80.7367 107.647 80.7106 107.3 80.6864L106.674 89.6646ZM108.564 89.8167C108.878 89.8455 109.193 89.8759 109.508 89.908L110.422 80.9545C110.075 80.9192 109.728 80.8856 109.382 80.854L108.564 89.8167ZM110.45 90.0092C110.763 90.0446 111.077 90.0817 111.391 90.1204L112.495 81.1884C112.15 81.1458 111.804 81.1049 111.459 81.0659L110.45 90.0092ZM112.331 90.2418C112.644 90.2839 112.957 90.3277 113.27 90.3732L114.565 81.4667C114.22 81.4166 113.875 81.3684 113.53 81.322L112.331 90.2418ZM114.209 90.5147C114.521 90.5634 114.832 90.6137 115.144 90.6657L116.626 81.7887C116.284 81.7314 115.941 81.676 115.598 81.6224L114.209 90.5147ZM116.078 90.8268C116.389 90.8821 116.7 90.9391 117.011 90.9978L118.681 82.1541C118.339 82.0895 117.996 82.0268 117.654 81.9659L116.078 90.8268ZM117.943 91.1789C118.253 91.2409 118.563 91.3045 118.873 91.3698L120.729 82.5633C120.388 82.4915 120.047 82.4215 119.706 82.3533L117.943 91.1789ZM119.799 91.57C120.107 91.6383 120.415 91.7084 120.723 91.78L122.763 83.0143C122.425 82.9355 122.086 82.8585 121.747 82.7833L119.799 91.57ZM121.647 92C121.954 92.075 122.262 92.1517 122.569 92.23L124.792 83.5088C124.454 83.4227 124.116 83.3385 123.778 83.2561L121.647 92ZM123.488 92.4693C123.793 92.5504 124.098 92.6332 124.402 92.7175L126.805 84.0444C126.471 83.9517 126.136 83.8608 125.801 83.7717L123.488 92.4693ZM125.315 92.9756C125.619 93.0633 125.923 93.1526 126.226 93.2435L128.809 84.6219C128.475 84.5221 128.142 84.424 127.808 84.3278L125.315 92.9756ZM127.137 93.5212C127.439 93.6151 127.741 93.7106 128.042 93.8078L130.801 85.2411C130.47 85.1345 130.139 85.0297 129.808 84.9267L127.137 93.5212ZM128.943 94.1029C129.243 94.2029 129.542 94.3045 129.842 94.4077L132.775 85.8992C132.447 85.786 132.118 85.6745 131.789 85.5649L128.943 94.1029ZM130.739 94.7223C131.038 94.8287 131.337 94.9368 131.635 95.0465L134.741 86.5994C134.414 86.4792 134.087 86.3607 133.759 86.244L130.739 94.7223ZM132.525 95.3789C132.82 95.4908 133.115 95.6044 133.41 95.7195L136.685 87.3367C136.363 87.2106 136.04 87.0862 135.716 86.9636L132.525 95.3789ZM134.293 96.0697C134.587 96.188 134.881 96.308 135.175 96.4295L138.617 88.114C138.296 87.981 137.975 87.8497 137.653 87.7202L134.293 96.0697ZM136.054 96.7988C136.345 96.9228 136.636 97.0484 136.927 97.1755L140.535 88.9302C140.217 88.7911 139.899 88.6538 139.58 88.5181L136.054 96.7988ZM137.794 97.5601C138.083 97.6898 138.371 97.8212 138.66 97.9541L142.429 89.7814C142.114 89.6362 141.799 89.4926 141.483 89.3508L137.794 97.5601ZM139.523 98.3574C139.81 98.4935 140.098 98.631 140.384 98.7702L144.313 90.6731C144 90.5211 143.687 90.3708 143.372 90.2222L139.523 98.3574ZM141.238 99.1898C141.521 99.3305 141.804 99.4728 142.086 99.6166L146.172 91.5972C145.863 91.4402 145.555 91.2849 145.246 91.1313L141.238 99.1898ZM142.932 100.053C143.214 100.199 143.495 100.348 143.776 100.498L148.015 92.5585C147.708 92.395 147.402 92.2331 147.094 92.0729L142.932 100.053ZM144.617 100.952C144.896 101.104 145.174 101.258 145.451 101.413L149.841 93.5564C149.539 93.3873 149.236 93.2198 148.932 93.054L144.617 100.952ZM146.278 101.88C146.554 102.038 146.828 102.196 147.103 102.356L151.64 94.5838C151.341 94.4094 151.042 94.2366 150.742 94.0653L146.278 101.88ZM147.925 102.842C148.199 103.005 148.472 103.17 148.745 103.336L153.427 95.6497C153.13 95.4689 152.833 95.2896 152.535 95.112L147.925 102.842ZM149.559 103.837C149.827 104.004 150.095 104.172 150.363 104.342L155.187 96.7443C154.896 96.5595 154.605 96.3763 154.312 96.1947L149.559 103.837ZM151.165 104.857C151.432 105.03 151.698 105.204 151.965 105.38L156.927 97.8715C156.638 97.6805 156.349 97.4911 156.059 97.3032L151.165 104.857ZM152.761 105.912C153.026 106.09 153.29 106.27 153.554 106.451L158.653 99.0349C158.366 98.8381 158.08 98.6428 157.792 98.4491L152.761 105.912ZM154.335 106.993C154.595 107.175 154.854 107.359 155.113 107.544L160.343 100.22C160.063 100.019 159.781 99.8202 159.5 99.6227L154.335 106.993ZM155.888 108.103C156.146 108.29 156.404 108.479 156.661 108.67L162.021 101.441C161.743 101.234 161.463 101.029 161.184 100.826L155.888 108.103ZM157.431 109.246C157.684 109.437 157.936 109.63 158.188 109.824L163.675 102.689C163.402 102.48 163.129 102.271 162.855 102.065L157.431 109.246ZM158.941 110.408C159.191 110.604 159.441 110.802 159.691 111L165.301 103.963C165.031 103.748 164.761 103.534 164.49 103.322L158.941 110.408ZM160.438 111.601C160.687 111.803 160.935 112.006 161.183 112.211L166.913 105.271C166.646 105.05 166.378 104.831 166.109 104.613L160.438 111.601ZM161.919 112.824C162.161 113.028 162.404 113.233 162.646 113.44L168.493 106.598C168.232 106.375 167.97 106.153 167.708 105.933L161.919 112.824ZM163.37 114.064C163.61 114.273 163.851 114.484 164.091 114.696L170.052 107.954C169.794 107.725 169.534 107.498 169.274 107.272L163.37 114.064ZM164.809 115.337C165.048 115.551 165.286 115.767 165.523 115.985L171.597 109.343C171.341 109.109 171.084 108.876 170.827 108.644L164.809 115.337ZM166.224 116.63C166.457 116.847 166.689 117.064 166.921 117.283L173.102 110.742C172.852 110.506 172.602 110.271 172.351 110.038L166.224 116.63ZM167.615 117.945C167.846 118.166 168.076 118.389 168.306 118.614L174.592 112.173C174.345 111.932 174.097 111.692 173.849 111.453L167.615 117.945ZM168.994 119.291C169.108 119.404 169.223 119.518 169.337 119.632L175.701 113.268C175.578 113.145 175.455 113.023 175.332 112.901L168.994 119.291Z" fill="#403F30"/>
<path d="M143.764 89.0701C141.303 87.8869 139.382 86.514 138.003 84.9515C136.663 83.4074 135.781 81.9421 135.359 80.5555C134.955 79.1305 134.892 78.1296 135.169 77.5528C135.28 77.3221 135.477 77.1091 135.761 76.9139C136.044 76.7187 136.319 76.5904 136.585 76.529C136.851 76.4677 137.08 76.4832 137.272 76.5756C137.619 76.742 137.844 77.1584 137.95 77.8246C138.113 78.471 138.364 79.2781 138.703 80.2461C139.043 81.2141 139.669 82.2254 140.582 83.2799C141.514 84.296 142.922 85.257 144.806 86.1629C146.767 87.1057 148.578 87.5739 150.238 87.5672C151.937 87.5791 153.437 87.117 154.739 86.1808C156.099 85.2246 157.231 83.8045 158.137 81.9203C159.098 79.9207 159.5 78.1493 159.343 76.606C159.242 75.0427 158.791 73.6184 157.989 72.3332C157.243 71.028 156.289 69.8118 155.127 68.6848C154.021 67.5379 152.897 66.3817 151.753 65.2162C150.647 64.0692 149.693 62.8531 148.891 61.5679C148.107 60.2442 147.655 58.7722 147.534 57.152C147.452 55.5503 147.901 53.7304 148.881 51.6924C149.879 49.6159 151.058 48.0996 152.417 47.1435C153.834 46.1674 155.313 45.6006 156.857 45.4431C158.418 45.2472 159.937 45.3381 161.412 45.716C162.906 46.0555 164.287 46.5303 165.556 47.1404C166.71 47.695 167.779 48.3273 168.763 49.0372C169.786 49.7656 170.685 50.5055 171.46 51.2568C172.253 51.9697 172.826 52.6478 173.18 53.2912C173.533 53.9346 173.608 54.4677 173.405 54.8907C173.294 55.1214 173.116 55.3437 172.871 55.5574C172.645 55.7326 172.39 55.8702 172.105 55.97C171.82 56.0698 171.543 56.055 171.274 55.9256C170.967 55.7777 170.588 55.3828 170.139 54.7409C169.709 54.0606 169.039 53.2885 168.128 52.4248C167.237 51.5226 165.926 50.6555 164.195 49.8236C162.811 49.158 161.325 48.704 159.737 48.4614C158.188 48.2373 156.722 48.4317 155.338 49.0448C153.954 49.6578 152.8 50.9256 151.876 52.8483C151.081 54.5017 150.789 55.9948 151.001 57.3273C151.251 58.6784 151.804 59.9388 152.662 61.1087C153.52 62.2786 154.511 63.4178 155.635 64.5263C156.777 65.5964 157.902 66.7526 159.009 67.995C160.116 69.2373 161.015 70.5688 161.705 71.9894C162.433 73.4284 162.792 75.045 162.782 76.839C162.81 78.6514 162.269 80.7113 161.16 83.0185C159.847 85.7486 158.256 87.7293 156.385 88.9606C154.554 90.2103 152.559 90.8136 150.402 90.7707C148.284 90.7463 146.071 90.1794 143.764 89.0701Z" fill="black"/>
<path d="M83.6575 80.3016C83.2366 80.3715 82.8404 80.3291 82.4687 80.1745C82.1322 79.9708 81.929 79.6585 81.8592 79.2376L74.6328 35.6729C74.563 35.2519 74.6579 34.9118 74.9177 34.6525C75.2195 34.3862 75.5809 34.2181 76.0018 34.1483C76.3806 34.0854 76.7558 34.1313 77.1275 34.2859C77.4991 34.4405 77.7199 34.7283 77.7897 35.1492L85.016 78.7139C85.0859 79.1348 84.9734 79.4995 84.6785 79.8079C84.3767 80.0742 84.0364 80.2388 83.6575 80.3016Z" fill="black"/>
<path d="M71.1834 82.617C70.7531 82.8043 70.2792 82.7314 69.7619 82.3981C69.2667 82.0088 68.8166 81.6695 68.4116 81.3805L51.3571 67.3751L43.259 70.8999L51.4324 89.6782C51.6026 90.0694 51.5824 90.4505 51.3716 90.8215C51.1437 91.1533 50.8538 91.3958 50.5017 91.5491C50.1105 91.7194 49.7158 91.7748 49.3177 91.7154C48.9417 91.5999 48.6685 91.3465 48.4982 90.9553L30.8744 50.4645C30.7381 50.1515 30.7253 49.8547 30.8357 49.5739C30.9683 49.237 31.2217 48.9639 31.5959 48.7545L41.6892 44.3613C43.88 43.4077 46.0676 42.8744 48.2519 42.7612C50.4192 42.6089 52.4362 43.127 54.303 44.3154C56.1527 45.4647 57.7076 47.4869 58.9676 50.3819C60.0404 52.8465 60.487 55.0486 60.3074 56.9881C60.167 58.9105 59.5518 60.5975 58.4619 62.0491C57.3941 63.4445 56.02 64.6708 54.3396 65.728L71.6467 79.8328C71.776 79.9161 71.8662 80.0164 71.9173 80.1338C72.0075 80.2341 72.0697 80.3234 72.1037 80.4017C72.2229 80.6755 72.2554 80.9639 72.201 81.2667C72.1297 81.5304 72.0107 81.7916 71.8441 82.0503C71.6775 82.3089 71.4572 82.4978 71.1834 82.617ZM42.084 68.2005L50.4756 64.548C53.2532 63.339 55.2133 61.6948 56.3556 59.6155C57.5201 57.48 57.4213 54.8474 56.059 51.7176C54.7138 48.627 52.8715 46.7998 50.5321 46.2359C48.2318 45.655 45.6928 45.9691 42.9152 47.178L34.5236 50.8305L42.084 68.2005Z" fill="black"/>
</svg>
